<svg width="25" height="22" viewBox="0 0 25 22" fill="none" xmlns="http://www.w3.org/2000/svg">
<path d="M0.796875 7.24219C0.796875 12.2344 4.98047 17.1445 11.5898 21.3633C11.8359 21.5156 12.1875 21.6797 12.4336 21.6797C12.6797 21.6797 13.0312 21.5156 13.2891 21.3633C19.8867 17.1445 24.0703 12.2344 24.0703 7.24219C24.0703 3.09375 21.2227 0.164062 17.4258 0.164062C15.2578 0.164062 13.5 1.19531 12.4336 2.77734C11.3906 1.20703 9.60938 0.164062 7.44141 0.164062C3.64453 0.164062 0.796875 3.09375 0.796875 7.24219ZM2.68359 7.24219C2.68359 4.125 4.69922 2.05078 7.41797 2.05078C9.62109 2.05078 10.8867 3.42188 11.6367 4.59375C11.9531 5.0625 12.1523 5.19141 12.4336 5.19141C12.7148 5.19141 12.8906 5.05078 13.2305 4.59375C14.0391 3.44531 15.2578 2.05078 17.4492 2.05078C20.168 2.05078 22.1836 4.125 22.1836 7.24219C22.1836 11.6016 17.5781 16.3008 12.6797 19.5586C12.5625 19.6406 12.4805 19.6992 12.4336 19.6992C12.3867 19.6992 12.3047 19.6406 12.1992 19.5586C7.28906 16.3008 2.68359 11.6016 2.68359 7.24219Z" fill="#FFFFFE"/>
</svg>
